<svg xmlns="http://www.w3.org/2000/svg" width="13.929" height="14.733" viewBox="0 0 13.929 14.733">
  <g id="Group_8130" data-name="Group 8130" transform="translate(-28 -699.85)">
    <g id="Group_7507" data-name="Group 7507" transform="translate(28 701.95)">
      <g id="Group_7506" data-name="Group 7506" transform="translate(0 0)">
        <g id="Group_7505" data-name="Group 7505">
          <g id="Group_7504" data-name="Group 7504">
            <g id="Group_7503" data-name="Group 7503">
              <path id="Path_18594" data-name="Path 18594" d="M62.32,77.609a.82.82,0,0,0-.211.028V80.2h-.816a.818.818,0,0,0-1.6,0H58.621a.818.818,0,0,0-1.6,0H55.949a.818.818,0,0,0-1.6,0H53.277a.818.818,0,0,0-1.6,0h-.815V68.276h.815a.82.82,0,0,0,.653.627.859.859,0,0,0,.144.012.832.832,0,0,0,.212-.028v-.38a.462.462,0,0,1-.212.052.453.453,0,0,1-.144-.023.463.463,0,0,1-.317-.438V67.92H50.51V80.553h1.507v-.178a.462.462,0,0,1,.924,0v.178h1.748v-.178a.462.462,0,0,1,.924,0v.178h1.749v-.178a.462.462,0,0,1,.924,0v.178h1.747v-.178a.462.462,0,0,1,.925,0v.178h1.508v-2.93A.778.778,0,0,0,62.32,77.609Z" transform="translate(-50.51 -67.92)" fill="#7d7d7d"/>
            </g>
          </g>
        </g>
      </g>
    </g>
    <g id="Group_7533" data-name="Group 7533" transform="translate(29.825 700)">
      <g id="Group_7511" data-name="Group 7511">
        <g id="Group_7510" data-name="Group 7510">
          <g id="Group_7509" data-name="Group 7509">
            <g id="Group_7508" data-name="Group 7508">
              <path id="Path_18595" data-name="Path 18595" d="M81.477,45.99v.178a.462.462,0,1,1-.925,0V45.99H78.805v.178a.462.462,0,1,1-.924,0V45.99H76.132v.178a.462.462,0,1,1-.924,0V45.99H73.461v.178a.462.462,0,1,1-.924,0V45.99H71.03V58.624h1.507v-.178a.462.462,0,0,1,.924,0v.178h1.748v-.178a.462.462,0,0,1,.924,0v.178h1.749v-.178a.462.462,0,0,1,.924,0v.178h1.747v-.178a.46.46,0,0,1,.253-.41.442.442,0,0,1,.211-.052.461.461,0,0,1,.461.461v.178h1.508V45.99Zm1.152,12.278h-.816a.818.818,0,0,0-.653-.626.778.778,0,0,0-.145-.013.819.819,0,0,0-.8.639H79.141a.818.818,0,0,0-1.6,0H76.469a.818.818,0,0,0-1.6,0H73.8a.818.818,0,0,0-1.6,0h-.815V46.346H72.2a.817.817,0,0,0,1.6,0h1.076a.817.817,0,0,0,1.6,0h1.077a.817.817,0,0,0,1.6,0h1.075a.818.818,0,0,0,1.6,0h.816Z" transform="translate(-71.03 -45.99)" fill="#7d7d7d" stroke="#7d7d7d" stroke-width="0.3"/>
            </g>
          </g>
        </g>
      </g>
      <g id="Group_7516" data-name="Group 7516" transform="translate(1.984 7.267)">
        <g id="Group_7515" data-name="Group 7515">
          <g id="Group_7514" data-name="Group 7514">
            <g id="Group_7513" data-name="Group 7513">
              <g id="Group_7512" data-name="Group 7512">
                <path id="Path_18596" data-name="Path 18596" d="M94.158,129.072c-.275-.091-.474-.166-.474-.372s.16-.3.39-.3a1.026,1.026,0,0,1,.555.195l.165-.2a1.356,1.356,0,0,0-.561-.239v-.431h-.22v.417a.582.582,0,0,0-.625.581c0,.392.328.505.688.621.3.094.493.173.493.41,0,.207-.18.327-.423.327a.937.937,0,0,1-.635-.273l-.172.205a1.146,1.146,0,0,0,.673.324v.4h.22v-.4a.609.609,0,0,0,.637-.6C94.87,129.308,94.563,129.2,94.158,129.072Z" transform="translate(-93.34 -127.72)" fill="#7c257a" stroke="#7c257a" stroke-width="0.3"/>
              </g>
            </g>
          </g>
        </g>
      </g>
      <g id="Group_7520" data-name="Group 7520" transform="translate(1.984 2.465)">
        <g id="Group_7519" data-name="Group 7519">
          <g id="Group_7518" data-name="Group 7518">
            <g id="Group_7517" data-name="Group 7517">
              <rect id="Rectangle_5312" data-name="Rectangle 5312" width="7.945" height="0.356" fill="#7c257a" stroke="#7c257a" stroke-width="0.3"/>
            </g>
          </g>
        </g>
      </g>
      <g id="Group_7524" data-name="Group 7524" transform="translate(1.984 4.081)">
        <g id="Group_7523" data-name="Group 7523">
          <g id="Group_7522" data-name="Group 7522">
            <g id="Group_7521" data-name="Group 7521">
              <rect id="Rectangle_5313" data-name="Rectangle 5313" width="7.945" height="0.356" fill="#7c257a" stroke="#7c257a" stroke-width="0.3"/>
            </g>
          </g>
        </g>
      </g>
      <g id="Group_7528" data-name="Group 7528" transform="translate(1.984 5.697)">
        <g id="Group_7527" data-name="Group 7527">
          <g id="Group_7526" data-name="Group 7526">
            <g id="Group_7525" data-name="Group 7525">
              <rect id="Rectangle_5314" data-name="Rectangle 5314" width="7.945" height="0.356" fill="#7c257a" stroke="#7c257a" stroke-width="0.3"/>
            </g>
          </g>
        </g>
      </g>
      <g id="Group_7532" data-name="Group 7532" transform="translate(4.621 8.596)">
        <g id="Group_7531" data-name="Group 7531">
          <g id="Group_7530" data-name="Group 7530">
            <g id="Group_7529" data-name="Group 7529">
              <rect id="Rectangle_5315" data-name="Rectangle 5315" width="5.308" height="0.356" fill="#7c257a" stroke="#7c257a" stroke-width="0.3"/>
            </g>
          </g>
        </g>
      </g>
    </g>
  </g>
</svg>
