<svg xmlns="http://www.w3.org/2000/svg" width="14.999" height="12.136" viewBox="0 0 14.999 12.136">
  <g id="Group_7558" data-name="Group 7558" transform="translate(-28.001 -676)">
    <g id="Group_7539" data-name="Group 7539" transform="translate(8.543 655.215)">
      <g id="Group_7534" data-name="Group 7534" transform="translate(19.458 22.332)">
        <path id="Path_18601" data-name="Path 18601" d="M32.254,32.921H19.9a.441.441,0,0,1-.441-.441V22.772a.441.441,0,0,1,.441-.44H32.254a.441.441,0,0,1,.441.44V32.48A.441.441,0,0,1,32.254,32.921Zm-11.913-.883H31.813V23.214H20.341Z" transform="translate(-19.458 -22.332)" fill="#7d7d7d"/>
      </g>
      <g id="Group_7535" data-name="Group 7535" transform="translate(27.602 29.174)">
        <path id="Path_18602" data-name="Path 18602" d="M30.221,32.319a.438.438,0,0,1-.31-.128l-2.887-2.858a.441.441,0,1,1,.621-.626l2.886,2.858a.44.44,0,0,1-.31.755Z" transform="translate(-26.894 -28.579)" fill="#7d7d7d"/>
      </g>
      <g id="Group_7536" data-name="Group 7536" transform="translate(20.781 29.174)">
        <path id="Path_18603" data-name="Path 18603" d="M21.107,32.319a.441.441,0,0,1-.31-.755l2.887-2.858a.441.441,0,1,1,.62.626l-2.886,2.858A.44.44,0,0,1,21.107,32.319Z" transform="translate(-20.666 -28.579)" fill="#7d7d7d"/>
      </g>
      <g id="Group_7537" data-name="Group 7537" transform="translate(19.458 22.332)">
        <path id="Path_18604" data-name="Path 18604" d="M26.077,29.579a.443.443,0,0,1-.24-.07l-6.176-3.983a.44.44,0,0,1-.2-.37V22.772a.441.441,0,0,1,.441-.44H32.254a.441.441,0,0,1,.441.44v2.383a.44.44,0,0,1-.2.37l-6.177,3.983A.437.437,0,0,1,26.077,29.579Zm-5.736-4.665,5.736,3.7,5.736-3.7v-1.7H20.341Z" transform="translate(-19.458 -22.332)" fill="#7d7d7d"/>
      </g>
    </g>
    <circle id="Ellipse_675" data-name="Ellipse 675" cx="4" cy="4" r="4" transform="translate(35 676)" fill="#fff"/>
    <g id="Group_7550" data-name="Group 7550" transform="translate(35.488 676.488)">
      <g id="Group_7544" data-name="Group 7544" transform="translate(0 0)">
        <g id="Group_7543" data-name="Group 7543" transform="translate(0 0)">
          <g id="Group_7542" data-name="Group 7542">
            <g id="Group_7541" data-name="Group 7541">
              <g id="Group_7540" data-name="Group 7540">
                <path id="Path_18605" data-name="Path 18605" d="M324.26,5196.743a3.506,3.506,0,1,1,3.506-3.506A3.51,3.51,0,0,1,324.26,5196.743Zm0-6.607a3.1,3.1,0,1,0,3.1,3.1A3.105,3.105,0,0,0,324.26,5190.136Z" transform="translate(-320.754 -5189.731)" fill="#7b257a" stroke="#7b257a" stroke-width="0.3"/>
              </g>
            </g>
          </g>
        </g>
      </g>
      <g id="Group_7549" data-name="Group 7549" transform="translate(2.368 1.265)">
        <g id="Group_7548" data-name="Group 7548" transform="translate(0 0)">
          <g id="Group_7547" data-name="Group 7547">
            <g id="Group_7546" data-name="Group 7546">
              <g id="Group_7545" data-name="Group 7545">
                <path id="Path_18606" data-name="Path 18606" d="M346.451,5205.238a.906.906,0,0,1-.946.9v.593h-.327v-.6a1.7,1.7,0,0,1-1-.48l.256-.306a1.39,1.39,0,0,0,.944.406c.361,0,.628-.18.628-.487,0-.352-.282-.469-.733-.609-.535-.173-1.023-.34-1.023-.923a.866.866,0,0,1,.929-.864v-.619h.327v.641a2,2,0,0,1,.834.355l-.246.3a1.518,1.518,0,0,0-.824-.289c-.342,0-.581.16-.581.447,0,.306.3.418.7.552.6.19,1.059.351,1.059.979Z" transform="translate(-344.176 -5202.249)" fill="#7b257a" stroke="#7b257a" stroke-width="0.3"/>
              </g>
            </g>
          </g>
        </g>
      </g>
    </g>
  </g>
</svg>
