<svg xmlns="http://www.w3.org/2000/svg" width="30" height="30" viewBox="0 0 30 30">
  <g id="Group_8133" data-name="Group 8133" transform="translate(-267 -281)">
    <circle id="Ellipse_676" data-name="Ellipse 676" cx="15" cy="15" r="15" transform="translate(267 281)" fill="#465cdb"/>
    <path id="Path_18412" data-name="Path 18412" d="M8.532,1C4.025,1,0,4,0,8.114a6.268,6.268,0,0,0,1.455,4A11.17,11.17,0,0,1,.038,16.641a20.48,20.48,0,0,0,5.672-1.8c6.566,1.6,11.353-2.421,11.353-6.723C17.063,3.982,13.01,1,8.532,1ZM5.187,9.868a1.944,1.944,0,0,1-1.237.352,2.658,2.658,0,0,1-1.2-.261l.195-.77a2.347,2.347,0,0,0,1.067.267A.865.865,0,0,0,4.5,9.337.385.385,0,0,0,4.515,8.7a1.9,1.9,0,0,0-.547-.254Q2.8,8.059,2.8,7.229a1.09,1.09,0,0,1,.429-.884A1.778,1.778,0,0,1,4.375,6a2.617,2.617,0,0,1,1.091.212l-.213.746a2.088,2.088,0,0,0-.892-.2.8.8,0,0,0-.446.109.338.338,0,0,0-.025.56,2.449,2.449,0,0,0,.647.3,1.967,1.967,0,0,1,.83.5,1.066,1.066,0,0,1,.262.735A1.115,1.115,0,0,1,5.187,9.868Zm4.719.285q-.1-2.432-.1-3.3H9.791Q9.644,7.5,8.8,10.086H8.064C7.725,8.9,7.226,6.853,7.226,6.853H7.213l-.145,3.3H6.195l.26-4.088H7.729l.721,2.82.873-2.82H10.61l.22,4.088Zm3.957-.268a1.967,1.967,0,0,1-1.251.357,2.684,2.684,0,0,1-1.228-.271l.206-.815a2.324,2.324,0,0,0,1.082.277.833.833,0,0,0,.474-.115.362.362,0,0,0,.016-.6,1.958,1.958,0,0,0-.538-.251c-.787-.261-1.187-.678-1.187-1.241a1.111,1.111,0,0,1,.439-.9,1.8,1.8,0,0,1,1.16-.351,2.671,2.671,0,0,1,1.1.213l.016.009-.225.79a2.067,2.067,0,0,0-.906-.21.774.774,0,0,0-.433.105.317.317,0,0,0-.023.525,2.5,2.5,0,0,0,.639.291,1.991,1.991,0,0,1,.84.5,1.1,1.1,0,0,1,.269.75A1.143,1.143,0,0,1,13.863,9.885Z" transform="translate(274 287.732)" fill="#fff"/>
  </g>
</svg>
